<svg width="277" height="291" viewBox="0 0 277 291" fill="none" xmlns="http://www.w3.org/2000/svg">
<path fill-rule="evenodd" clip-rule="evenodd" d="M108.704 0C128.998 3.45707e-05 145.45 2.60419 158.007 7.86816C170.518 12.9408 179.33 19.6395 184.284 28.0342C186.703 32.1326 195.07 47.4227 202.519 62.8604C206.243 70.579 209.747 78.3572 212.165 84.8027C213.373 88.0234 214.319 90.9347 214.883 93.3525C215.434 95.717 215.665 97.7854 215.278 99.2178L214.916 100.56L213.76 99.79L154.423 60.2949L153.862 59.9219L153.997 59.2627C157.247 43.3377 154.831 31.3298 147.039 22.9893L147.034 22.9834L147.028 22.9775C139.474 14.6304 126.176 10.3145 106.808 10.3145C91.4915 10.3145 79.5681 13.1555 70.9385 18.7295L70.9268 18.7363C62.3787 24.0903 58.1211 31.9063 58.1211 42.3135C58.1211 50.4776 61.5083 57.4845 68.3896 63.3779C75.267 69.094 87.567 73.7318 105.479 77.1885L105.485 77.1895L131.646 82.3848H131.646C152.835 86.3831 168.853 92.6398 179.591 101.229C182.147 103.274 184.402 105.451 186.355 107.757C199.24 108.827 210.166 111.226 219.114 114.978C231.625 120.05 240.438 126.749 245.392 135.144C247.81 139.243 256.178 154.533 263.626 169.97C267.35 177.688 270.855 185.467 273.272 191.912C274.48 195.133 275.426 198.044 275.99 200.462C276.542 202.826 276.773 204.895 276.386 206.327L276.023 207.669L274.867 206.899L215.53 167.404L214.97 167.031L215.104 166.372C218.354 150.447 215.938 138.439 208.146 130.099L208.142 130.093L208.136 130.087C204.624 126.206 199.87 123.197 193.842 121.088C195.147 125.129 195.802 129.445 195.802 134.035C195.802 143.469 192.546 152.009 186.082 159.626L186.081 159.625C179.857 167.083 170.323 172.966 157.581 177.331L157.582 177.332C154.81 178.301 151.878 179.161 148.786 179.914C153.936 181.538 159.867 183.001 166.587 184.298L166.593 184.299L192.753 189.494H192.754C213.943 193.493 229.96 199.749 240.698 208.339C251.479 216.963 256.909 227.919 256.909 241.145C256.909 250.578 253.653 259.119 247.189 266.735L247.188 266.734C240.965 274.192 231.43 280.075 218.688 284.44L218.689 284.441C206.158 288.821 190.359 290.993 171.328 290.993C158.109 290.993 145.391 289.6 133.177 286.811L133.173 286.81C121.163 284.009 110.784 279.187 102.06 272.331L102.054 272.326L102.049 272.322C100.877 271.374 99.4393 269.545 97.8438 267.17C96.2278 264.765 94.3871 261.702 92.415 258.199C88.4697 251.191 83.9709 242.367 79.6514 233.393C75.3312 224.416 71.1841 215.275 67.9414 207.626C64.7123 200.009 62.3444 193.79 61.626 190.703L61.1074 188.477L63.0947 189.607L125.171 224.945L125.614 225.197L125.67 225.704C126.006 228.741 125.441 232.356 124.559 236.08C123.675 239.812 122.436 243.79 121.371 247.524C120.296 251.295 119.397 254.818 119.13 257.767C118.859 260.759 119.268 262.864 120.462 264.092C126.396 270.189 133.822 274.521 142.768 277.076C151.778 279.476 161.297 280.678 171.328 280.678C188.169 280.678 201.64 277.835 211.809 272.228L211.817 272.223C217.008 269.429 220.848 266.008 223.394 261.981C225.936 257.959 227.221 253.276 227.221 247.899C227.221 239.418 223.481 232.338 215.862 226.613L215.852 226.605L216.463 225.813L215.852 226.604C208.211 220.695 194.756 215.878 175.316 212.246L175.306 212.244L149.135 207.048V207.047C129.826 203.391 114.976 197.192 104.683 188.378C102.888 186.841 101.248 185.243 99.7627 183.585C90.2611 183.04 81.0296 181.747 72.0693 179.701L72.0654 179.7C60.0554 176.899 49.677 172.078 40.9521 165.222L40.9463 165.217L40.9414 165.213C39.7697 164.264 38.332 162.436 36.7363 160.061C35.1203 157.655 33.2797 154.593 31.3076 151.09C27.3622 144.081 22.8635 135.258 18.5439 126.283C14.2237 117.307 10.0767 108.166 6.83398 100.517C3.60477 92.8995 1.23692 86.6807 0.518555 83.5938L0 81.3672L1.9873 82.498L64.0635 117.836L64.5068 118.088L64.5625 118.595C64.8983 121.632 64.3335 125.246 63.4512 128.971C62.5672 132.703 61.3287 136.681 60.2637 140.415C59.1883 144.185 58.2896 147.709 58.0225 150.657C57.7515 153.649 58.1601 155.755 59.3545 156.982C65.2886 163.08 72.7143 167.412 81.6602 169.967C85.1669 170.901 88.7511 171.651 92.4121 172.222C90.2474 167.198 89.1612 161.762 89.1611 155.919C89.1611 147.362 92.0292 139.358 97.7109 131.927L97.7246 131.909C103.682 124.457 112.573 118.479 124.315 113.933L124.321 113.93H124.322C127.916 112.568 131.789 111.413 135.941 110.461C129.79 108.473 122.551 106.695 114.209 105.137L114.198 105.135L88.0273 99.9385V99.9375C68.7182 96.2813 53.8685 90.0829 43.5752 81.2686C33.2562 72.4321 28.0538 61.5953 28.0537 48.8096C28.0537 40.2531 30.9218 32.2483 36.6035 24.8174L36.6172 24.7998C42.5745 17.3475 51.4659 11.3699 63.208 6.82324L63.2139 6.82031H63.2148C75.2498 2.25951 90.4256 4.23193e-06 108.704 0ZM176.575 289.936C174.855 289.974 173.106 289.992 171.328 289.992V289.993C173.106 289.993 174.855 289.974 176.575 289.936ZM133.399 285.836C134.155 286.009 134.913 286.175 135.673 286.337L134.535 286.09C134.156 286.006 133.777 285.921 133.399 285.835V285.836ZM179.028 281.468C178.531 281.496 178.03 281.522 177.526 281.544C178.534 281.499 179.529 281.443 180.511 281.376L179.028 281.468ZM151.234 279.966C152.066 280.112 152.902 280.25 153.741 280.378C152.902 280.25 152.066 280.113 151.234 279.966ZM148.549 279.458C148.968 279.543 149.388 279.625 149.809 279.705C149.388 279.625 148.968 279.542 148.549 279.457V279.458ZM142.502 278.04C142.786 278.116 143.072 278.19 143.357 278.264L142.503 278.04C142.235 277.964 141.968 277.885 141.703 277.806C141.968 277.885 142.234 277.964 142.502 278.04ZM227.657 242.313C227.706 242.544 227.75 242.776 227.792 243.009C227.709 242.547 227.613 242.09 227.505 241.638C227.558 241.862 227.61 242.087 227.657 242.313ZM255.908 241.144L255.909 241.145C255.909 240.943 255.908 240.741 255.905 240.541H255.904C255.907 240.741 255.908 240.942 255.908 241.144ZM197.715 216.733C197.273 216.589 196.826 216.446 196.373 216.304C196.826 216.446 197.273 216.589 197.715 216.733ZM185.838 213.438C186.378 213.565 186.913 213.694 187.441 213.824C187.947 213.949 188.447 214.075 188.942 214.201C187.425 213.813 185.86 213.435 184.245 213.067C184.781 213.19 185.312 213.313 185.838 213.438ZM175.5 211.264C176.108 211.377 176.711 211.492 177.308 211.608C177.905 211.724 178.496 211.842 179.082 211.96C179.602 212.065 180.118 212.171 180.63 212.278C178.967 211.93 177.257 211.591 175.5 211.263L153.043 206.804L175.5 211.264ZM70.9551 178.402C71.3986 178.513 71.8438 178.622 72.292 178.727C73.2335 178.942 74.1783 179.148 75.126 179.346C74.1782 179.147 73.2335 178.941 72.292 178.726C71.8439 178.621 71.3985 178.512 70.9551 178.402ZM68.4268 177.736C68.6818 177.807 68.9377 177.877 69.1943 177.946C68.9377 177.877 68.6818 177.807 68.4268 177.736ZM67.0508 177.342C67.311 177.419 67.5721 177.494 67.834 177.569C67.5721 177.494 67.311 177.419 67.0508 177.342ZM65.7695 176.952C66.0183 177.03 66.2682 177.106 66.5186 177.182C66.2681 177.106 66.0183 177.03 65.7695 176.952ZM64.7295 176.622C64.8634 176.666 64.9984 176.707 65.1328 176.75C64.8706 176.666 64.6091 176.581 64.3486 176.495C64.4755 176.537 64.6022 176.581 64.7295 176.622ZM63.6875 176.274C63.7991 176.312 63.9115 176.348 64.0234 176.386C63.7723 176.301 63.5219 176.216 63.2725 176.13C63.4108 176.178 63.5487 176.227 63.6875 176.274ZM61.6318 175.545C61.9938 175.679 62.358 175.809 62.7236 175.938C62.358 175.809 61.9938 175.679 61.6318 175.545ZM153.288 118.431C144.774 119.705 137.702 122.185 132.046 125.839L132.034 125.846C123.486 131.2 119.229 139.016 119.229 149.423C119.229 157.587 122.616 164.594 129.497 170.487C130.03 170.93 130.597 171.363 131.194 171.793C138.678 170.391 145.177 168.164 150.701 165.118L150.71 165.113C155.9 162.319 159.741 158.899 162.286 154.872C164.829 150.849 166.113 146.167 166.113 140.79C166.113 132.308 162.374 125.228 154.755 119.504L154.744 119.496L155.355 118.704L154.744 119.495C154.28 119.136 153.795 118.781 153.288 118.431ZM127.957 170.461C128.247 170.726 128.544 170.989 128.848 171.249H128.849C128.545 170.989 128.248 170.726 127.957 170.461ZM166.554 146.743L166.644 146.269C166.653 146.218 166.659 146.166 166.668 146.115C166.632 146.326 166.595 146.535 166.554 146.743ZM166.714 145.844C166.739 145.692 166.763 145.54 166.785 145.388C166.763 145.54 166.739 145.692 166.714 145.844ZM244.53 135.651L244.083 134.916C244.081 134.913 244.079 134.91 244.077 134.907C244.232 135.154 244.383 135.402 244.53 135.651ZM166.379 134.44C166.324 134.214 166.265 133.99 166.204 133.766C166.265 133.99 166.324 134.214 166.379 134.44ZM166.145 133.555C166.095 133.38 166.045 133.206 165.992 133.032C166.045 133.206 166.095 133.38 166.145 133.555ZM194.798 133.432L194.786 132.832C194.786 132.82 194.785 132.809 194.784 132.797C194.79 133.008 194.795 133.219 194.798 133.432ZM165.948 132.89C165.876 132.659 165.802 132.429 165.724 132.201C165.802 132.429 165.876 132.659 165.948 132.89ZM194.767 132.245C194.766 132.242 194.767 132.239 194.767 132.235C194.765 132.197 194.763 132.159 194.762 132.121C194.763 132.162 194.765 132.204 194.767 132.245ZM194.752 131.909C194.748 131.82 194.745 131.731 194.74 131.642C194.737 131.586 194.733 131.531 194.729 131.476C194.738 131.62 194.745 131.764 194.752 131.909ZM194.72 131.296C194.71 131.142 194.7 130.988 194.689 130.835C194.7 130.988 194.71 131.142 194.72 131.296ZM194.679 130.695C194.666 130.521 194.653 130.347 194.638 130.173C194.653 130.347 194.666 130.521 194.679 130.695ZM194.562 129.384C194.56 129.356 194.558 129.328 194.555 129.3C194.542 129.179 194.528 129.059 194.514 128.939C194.531 129.087 194.547 129.235 194.562 129.384ZM161.086 124.08C161.421 124.482 161.743 124.888 162.05 125.3L161.557 124.657C161.403 124.463 161.246 124.271 161.086 124.08ZM131.503 124.998V124.999C131.779 124.821 132.059 124.645 132.342 124.472V124.471C132.059 124.644 131.779 124.819 131.503 124.998ZM160.958 123.929C160.823 123.769 160.686 123.611 160.547 123.453C160.686 123.611 160.823 123.769 160.958 123.929ZM160.471 123.366C160.296 123.17 160.118 122.974 159.937 122.78C160.118 122.974 160.296 123.17 160.471 123.366ZM193.255 122.59C193.306 122.77 193.357 122.95 193.406 123.131L193.256 122.59C193.204 122.41 193.151 122.231 193.097 122.052L193.255 122.59ZM219.938 116.4C219.922 116.394 219.906 116.387 219.89 116.38C219.51 116.22 219.126 116.061 218.739 115.904H218.738C219.142 116.068 219.542 116.233 219.938 116.4ZM126.94 114.047C126.557 114.179 126.176 114.313 125.799 114.449L126.941 114.047C127.325 113.915 127.712 113.785 128.102 113.657L126.94 114.047ZM132.562 108.38C133.476 108.645 134.369 108.914 135.242 109.188L133.844 108.758C133.421 108.631 132.994 108.505 132.562 108.38ZM130.941 107.92C131.373 108.04 131.8 108.161 132.223 108.282C131.207 107.99 130.166 107.703 129.1 107.421C129.722 107.585 130.336 107.752 130.941 107.92ZM125.204 106.441C126.5 106.752 127.763 107.068 128.993 107.393C127.763 107.068 126.5 106.752 125.204 106.441ZM125.09 106.414C124.449 106.261 123.8 106.11 123.143 105.96C123.8 106.11 124.449 106.261 125.09 106.414ZM122.967 105.92C122.547 105.825 122.123 105.731 121.696 105.637C122.123 105.731 122.547 105.825 122.967 105.92ZM118.111 104.878C119.163 105.091 120.196 105.309 121.211 105.53C120.196 105.309 119.163 105.091 118.111 104.878ZM117.753 104.807C117.323 104.72 116.89 104.634 116.454 104.549C116.89 104.634 117.323 104.72 117.753 104.807ZM116.033 104.467C115.491 104.362 114.944 104.257 114.393 104.154C114.944 104.257 115.491 104.362 116.033 104.467ZM69.9609 65.8213C70.1592 65.959 70.3607 66.0961 70.5654 66.2324C70.3607 66.0961 70.1592 65.959 69.9609 65.8213ZM69.1318 65.2295C69.358 65.3967 69.5898 65.5614 69.8252 65.7266C69.59 65.5616 69.3588 65.3966 69.1328 65.2295H69.1318ZM57.1621 43.8906C57.1671 43.9839 57.1748 44.0769 57.1807 44.1699C57.1743 44.0688 57.1664 43.9677 57.1611 43.8662L57.1621 43.8906ZM150.538 25.7295C150.642 25.8793 150.745 26.03 150.847 26.1816C150.948 26.3331 151.048 26.4854 151.146 26.6387C150.949 26.3317 150.746 26.0282 150.538 25.7285V25.7295ZM69.7432 178.093C69.8565 178.123 69.9694 178.154 70.083 178.184C70.3473 178.252 70.6129 178.317 70.8789 178.384C70.4986 178.289 70.1201 178.192 69.7432 178.093ZM194.626 130.039C194.61 129.864 194.593 129.69 194.575 129.516C194.593 129.69 194.61 129.864 194.626 130.039Z" fill="#474134"/>
</svg>
