<svg width="80" height="80" viewBox="0 0 80 80" fill="none" xmlns="http://www.w3.org/2000/svg">
<rect width="80" height="80" stroke="#474134"/>
<path d="M45.7667 70C45.1806 71.0103 44.3395 71.8488 43.3274 72.4318C42.3154 73.0147 41.1679 73.3215 40 73.3215C38.8321 73.3215 37.6846 73.0147 36.6726 72.4318C35.6605 71.8488 34.8194 71.0103 34.2333 70M60 26.6667C60 21.3623 57.8929 16.2753 54.1421 12.5245C50.3914 8.7738 45.3043 6.66667 40 6.66667C34.6957 6.66667 29.6086 8.7738 25.8579 12.5245C22.1071 16.2753 20 21.3623 20 26.6667C20 50 10 56.6667 10 56.6667H70C70 56.6667 60 50 60 26.6667Z" stroke="#474134" stroke-width="4" stroke-linecap="round" stroke-linejoin="round"/>
</svg>
