<svg width="68" height="103" viewBox="0 0 68 103" fill="none" xmlns="http://www.w3.org/2000/svg">
<path d="M26.8467 0C31.7615 4.88056e-05 35.8314 0.919909 38.9785 2.84668H38.9775C42.0753 4.68304 44.2723 7.12095 45.5029 10.165C46.0826 11.5991 48.0724 16.9075 49.8428 22.2637C50.728 24.9419 51.5644 27.6496 52.1426 29.8994C52.4313 31.0232 52.6605 32.0504 52.7979 32.9102C52.9292 33.7329 52.9986 34.5237 52.8896 35.1123L52.5498 36.9492L51.209 35.6475L37.1299 21.9668L36.7656 21.6143L36.8359 21.1113C37.601 15.6379 37.0091 11.6297 35.2744 8.91895L35.2666 8.90723C33.6447 6.29126 30.7912 4.87992 26.3965 4.87988C22.9205 4.87988 20.3107 5.81568 18.4424 7.57715L18.4365 7.58301L18.4307 7.58789C16.597 9.26459 15.6065 11.7797 15.6064 15.3096C15.6065 18.042 16.3809 20.3347 17.9023 22.2393C19.2992 23.9323 21.7911 25.3957 25.54 26.542L26.3076 26.7676L26.3145 26.7695L32.5107 28.5654H32.5117C37.6482 29.9803 41.6055 32.216 44.2783 35.3369C44.8324 35.9839 45.3269 36.6659 45.7646 37.3809C48.7497 37.7852 51.3293 38.6305 53.4785 39.9463H53.4775C56.5754 41.7827 58.7722 44.2205 60.0029 47.2646C60.5824 48.6982 62.5723 54.0066 64.3428 59.3633C65.228 62.0416 66.0644 64.7491 66.6426 66.999C66.9314 68.1229 67.1605 69.1499 67.2979 70.0098C67.4293 70.8326 67.4987 71.6232 67.3896 72.2119L67.0498 74.0488L65.709 72.7471L51.6299 59.0664L51.2656 58.7139L51.3359 58.2109C52.101 52.7374 51.5093 48.7294 49.7744 46.0186L49.7666 46.0068C49.3061 45.2642 48.7461 44.6189 48.0801 44.0752C48.2106 45.0403 48.2764 46.0422 48.2764 47.0801C48.2763 50.4216 47.4853 53.4741 45.8936 56.2148L45.8945 56.2158C44.342 58.9326 41.9617 61.0704 38.8135 62.6445L38.8125 62.6436C38.582 62.761 38.3463 62.872 38.1074 62.9805C38.7103 63.2109 39.354 63.4318 40.04 63.6416L40.8076 63.8672L40.8145 63.8691L47.0107 65.665H47.0117C52.1483 67.0799 56.1055 69.3156 58.7783 72.4365C61.463 75.5713 62.7764 79.5117 62.7764 84.1797C62.7764 87.5214 61.9854 90.5736 60.3936 93.3145L60.3945 93.3154C58.842 96.0323 56.4618 98.17 53.3135 99.7441L53.3125 99.7432C50.1914 101.334 46.3057 102.1 41.7061 102.1C38.4817 102.1 35.3744 101.603 32.3896 100.608L32.3838 100.606C29.3899 99.5872 26.8128 97.8341 24.6621 95.3672L24.6572 95.3613L24.6533 95.3555C24.3061 94.9451 23.9318 94.2319 23.5576 93.4189C23.1666 92.5694 22.7249 91.496 22.2549 90.2773C21.314 87.8376 20.2433 84.7715 19.2168 81.6582C17.1763 75.4694 15.2642 68.9524 14.9189 66.7871L14.5 64.1611L16.5449 65.8604L31.2754 78.1006L31.6016 78.3711L31.6338 78.7939C31.7181 79.9065 31.5752 81.2062 31.3643 82.5059C31.1527 83.8094 30.8557 85.2056 30.6055 86.4863C30.3503 87.7921 30.1432 88.9829 30.082 89.9678C30.0174 91.01 30.1382 91.5734 30.2988 91.8145C31.6404 93.8268 33.2897 95.217 35.2451 96.0332C37.2806 96.8225 39.4316 97.2197 41.7061 97.2197C45.5612 97.2197 48.5603 96.2723 50.7988 94.4707L50.8086 94.4629C53.0384 92.7108 54.2061 90.1204 54.2061 86.5195C54.206 83.6796 53.3511 81.3782 51.6777 79.543L51.6729 79.5381L51.668 79.5322C49.9993 77.6483 46.9835 76.0349 42.4336 74.7939L42.418 74.79L36.208 72.9902V72.9893C31.4988 71.6859 27.8228 69.461 25.2656 66.2646C24.9016 65.8096 24.5645 65.3402 24.2529 64.8574C22.0745 64.6454 19.9527 64.1965 17.8896 63.5088L17.8838 63.5068C14.89 62.4876 12.3127 60.7344 10.1621 58.2676L10.1572 58.2617L10.1533 58.2559C9.80615 57.8456 9.43175 57.1322 9.05762 56.3193C8.66667 55.4699 8.22483 54.3963 7.75488 53.1777C6.81399 50.738 5.74327 47.6718 4.7168 44.5586C2.67639 38.3701 0.764336 31.8532 0.418945 29.6875L0 27.0615L2.04492 28.7607L16.7754 41.001L17.1016 41.2715L17.1338 41.6943C17.218 42.8068 17.0751 44.1068 16.8643 45.4062C16.6527 46.7097 16.3557 48.1062 16.1055 49.3867C15.8504 50.6923 15.6431 51.8834 15.582 52.8682C15.5174 53.9102 15.6382 54.4738 15.7988 54.7148C17.1403 56.727 18.7898 58.1174 20.7451 58.9336C21.1429 59.0878 21.5454 59.2263 21.9521 59.3506C21.6146 57.8724 21.4463 56.3077 21.4463 54.6592C21.4464 51.6199 22.1442 48.7605 23.54 46.0957L23.5449 46.0879L23.5488 46.0791C25.0274 43.3791 27.2397 41.2112 30.1445 39.5693L30.1523 39.5645C30.5997 39.317 31.0641 39.0903 31.5439 38.8809C30.469 38.4556 29.2675 38.0582 27.9336 37.6943L27.918 37.6904L21.708 35.8906V35.8896C16.9989 34.5864 13.3228 32.3612 10.7656 29.165C8.20625 25.9658 6.94636 22.0766 6.94629 17.5596C6.94635 14.5204 7.64434 11.6608 9.04004 8.99609L9.04492 8.98828L9.04883 8.97949C10.5274 6.27951 12.7398 4.11159 15.6445 2.46973L15.6523 2.46484C18.6624 0.799731 22.4129 0 26.8467 0ZM35.6816 97.2549C35.7219 97.2684 35.7624 97.2807 35.8027 97.2939C35.7454 97.2752 35.688 97.2567 35.6309 97.2373L35.6816 97.2549ZM25.3193 94.5859C25.3527 94.6319 25.385 94.6733 25.416 94.71C25.3728 94.6589 25.328 94.5983 25.2803 94.5293C25.2937 94.5487 25.3063 94.5679 25.3193 94.5859ZM24.9902 94.0547C25.03 94.1266 25.0688 94.1943 25.1064 94.2578C25.1581 94.3448 25.2083 94.4235 25.2559 94.4941C25.1654 94.36 25.0678 94.1953 24.9629 94.0029L24.9902 94.0547ZM22.832 88.9824C22.9524 89.3033 23.0709 89.6156 23.1875 89.918C23.3041 90.2202 23.4191 90.5125 23.5312 90.7939L23.1875 89.917C23.0709 89.6146 22.9524 89.3024 22.832 88.9814V88.9824ZM47.3115 75.4248C47.5356 75.5232 47.7545 75.6229 47.9678 75.7246L47.3115 75.4238C47.0875 75.3254 46.8579 75.2289 46.623 75.1338L47.3115 75.4248ZM37.1543 42.418C35.4632 42.8557 34.068 43.6155 32.9424 44.6768L32.9365 44.6826L32.9307 44.6875C31.0969 46.3642 30.1065 48.8792 30.1064 52.4092C30.1064 55.1418 30.8809 57.4342 32.4023 59.3389C32.4168 59.3564 32.4325 59.3731 32.4473 59.3906C33.921 58.929 35.2017 58.254 36.2988 57.3711L36.3086 57.3633C38.5383 55.6112 39.706 53.0205 39.7061 49.4199C39.706 46.5801 38.8509 44.2786 37.1777 42.4434L37.1729 42.4385L37.168 42.4326C37.1635 42.4276 37.1587 42.423 37.1543 42.418ZM10.8193 57.4863C10.8526 57.5322 10.8851 57.5738 10.916 57.6104V57.6094C10.8749 57.5608 10.8324 57.5033 10.7871 57.4385C10.7984 57.4546 10.8083 57.4712 10.8193 57.4863ZM10.6309 57.1963C10.6659 57.2543 10.7003 57.3081 10.7334 57.3584C10.7003 57.3082 10.6659 57.2542 10.6309 57.1963ZM10.457 56.8926C10.502 56.9752 10.5455 57.0527 10.5879 57.125C10.5455 57.0528 10.502 56.9752 10.457 56.8926ZM29.1455 53.4922C29.1495 53.5465 29.1565 53.6003 29.1611 53.6543C29.1556 53.5894 29.1482 53.5244 29.1436 53.459L29.1455 53.4922ZM7.03711 48.2881C7.1324 48.5615 7.22773 48.832 7.32227 49.0996C7.22768 48.8321 7.13245 48.5615 7.03711 48.2881ZM6.43945 46.5547C6.47601 46.6622 6.51425 46.769 6.55078 46.876C6.49196 46.7037 6.43189 46.5311 6.37305 46.3574C6.39534 46.4232 6.41716 46.4891 6.43945 46.5547ZM4.75781 41.4365C4.81924 41.6294 4.88026 41.823 4.94238 42.0166C4.88027 41.823 4.81924 41.6294 4.75781 41.4365ZM4.12598 39.4307C4.1714 39.577 4.21765 39.7237 4.26367 39.8711C4.21765 39.7237 4.1714 39.577 4.12598 39.4307ZM31.5166 37.7969L31.4023 37.7529C31.3384 37.729 31.2737 37.7063 31.209 37.6826C31.3124 37.7205 31.415 37.7584 31.5166 37.7969ZM30.835 37.5488C30.732 37.5126 30.6282 37.4762 30.5234 37.4404C30.6282 37.4761 30.732 37.5126 30.835 37.5488ZM28.1963 36.7305C28.7739 36.888 29.3298 37.052 29.8643 37.2227C29.9525 37.2508 30.0399 37.2801 30.127 37.3086C29.5125 37.1073 28.8693 36.913 28.1963 36.7295V36.7305ZM26.8252 3.88477C27.1592 3.89167 27.4857 3.90564 27.8047 3.92871C27.4857 3.90539 27.1592 3.89069 26.8252 3.88379L26.3965 3.87988L26.8252 3.88477ZM10.2393 56.4746C10.3023 56.6013 10.3639 56.7198 10.4229 56.8301C10.3638 56.7198 10.3023 56.6013 10.2393 56.4746Z" fill="#474134"/>
</svg>
