<svg width="64" height="64" viewBox="0 0 64 64" fill="none" xmlns="http://www.w3.org/2000/svg">
<path d="M32 32C29.0666 32 26.5555 30.9556 24.4666 28.8667C22.3777 26.7778 21.3333 24.2667 21.3333 21.3333C21.3333 18.4 22.3777 15.8889 24.4666 13.8C26.5555 11.7111 29.0666 10.6667 32 10.6667C34.9333 10.6667 37.4444 11.7111 39.5333 13.8C41.6222 15.8889 42.6666 18.4 42.6666 21.3333C42.6666 24.2667 41.6222 26.7778 39.5333 28.8667C37.4444 30.9556 34.9333 32 32 32ZM10.6666 53.3333V45.8667C10.6666 44.3556 11.0555 42.9667 11.8333 41.7C12.6111 40.4333 13.6444 39.4667 14.9333 38.8C17.6888 37.4222 20.4888 36.3889 23.3333 35.7C26.1777 35.0111 29.0666 34.6667 32 34.6667C34.9333 34.6667 37.8222 35.0111 40.6666 35.7C43.5111 36.3889 46.3111 37.4222 49.0666 38.8C50.3555 39.4667 51.3889 40.4333 52.1666 41.7C52.9444 42.9667 53.3333 44.3556 53.3333 45.8667V53.3333H10.6666ZM16 48H48V45.8667C48 45.3778 47.8777 44.9333 47.6333 44.5333C47.3889 44.1333 47.0666 43.8222 46.6666 43.6C44.2666 42.4 41.8444 41.5 39.4 40.9C36.9555 40.3 34.4888 40 32 40C29.5111 40 27.0444 40.3 24.6 40.9C22.1555 41.5 19.7333 42.4 17.3333 43.6C16.9333 43.8222 16.6111 44.1333 16.3666 44.5333C16.1222 44.9333 16 45.3778 16 45.8667V48ZM32 26.6667C33.4666 26.6667 34.7222 26.1444 35.7666 25.1C36.8111 24.0556 37.3333 22.8 37.3333 21.3333C37.3333 19.8667 36.8111 18.6111 35.7666 17.5667C34.7222 16.5222 33.4666 16 32 16C30.5333 16 29.2777 16.5222 28.2333 17.5667C27.1888 18.6111 26.6666 19.8667 26.6666 21.3333C26.6666 22.8 27.1888 24.0556 28.2333 25.1C29.2777 26.1444 30.5333 26.6667 32 26.6667Z" fill="#1D1B20"/>
</svg>
